<svg width="24" height="25" viewBox="0 0 24 25" fill="none" xmlns="http://www.w3.org/2000/svg">
<path d="M16.9997 9.66994C16.8123 9.48369 16.5589 9.37915 16.2947 9.37915C16.0305 9.37915 15.7771 9.48369 15.5897 9.66994L11.9997 13.2099L8.4597 9.66994C8.27234 9.48369 8.01889 9.37915 7.7547 9.37915C7.49052 9.37915 7.23707 9.48369 7.0497 9.66994C6.95598 9.76291 6.88158 9.87351 6.83081 9.99537C6.78004 10.1172 6.75391 10.2479 6.75391 10.3799C6.75391 10.512 6.78004 10.6427 6.83081 10.7645C6.88158 10.8864 6.95598 10.997 7.0497 11.0899L11.2897 15.3299C11.3827 15.4237 11.4933 15.4981 11.6151 15.5488C11.737 15.5996 11.8677 15.6257 11.9997 15.6257C12.1317 15.6257 12.2624 15.5996 12.3843 15.5488C12.5061 15.4981 12.6167 15.4237 12.7097 15.3299L16.9997 11.0899C17.0934 10.997 17.1678 10.8864 17.2186 10.7645C17.2694 10.6427 17.2955 10.512 17.2955 10.3799C17.2955 10.2479 17.2694 10.1172 17.2186 9.99537C17.1678 9.87351 17.0934 9.76291 16.9997 9.66994Z" fill="#87949F"/>
</svg>
