<svg width="24" height="25" viewBox="0 0 24 25" fill="none" xmlns="http://www.w3.org/2000/svg">
<path d="M12.3 12.9834C12.8336 12.5216 13.2616 11.9503 13.5549 11.3085C13.8482 10.6666 14 9.96914 14 9.26343C14 7.93735 13.4732 6.66558 12.5355 5.72789C11.5979 4.79021 10.3261 4.26343 9 4.26343C7.67392 4.26343 6.40215 4.79021 5.46447 5.72789C4.52678 6.66558 4 7.93735 4 9.26343C3.99999 9.96914 4.1518 10.6666 4.44513 11.3085C4.73845 11.9503 5.16642 12.5216 5.7 12.9834C4.30014 13.6173 3.11247 14.641 2.27898 15.932C1.4455 17.223 1.00147 18.7267 1 20.2634C1 20.5286 1.10536 20.783 1.29289 20.9705C1.48043 21.1581 1.73478 21.2634 2 21.2634C2.26522 21.2634 2.51957 21.1581 2.70711 20.9705C2.89464 20.783 3 20.5286 3 20.2634C3 18.6721 3.63214 17.146 4.75736 16.0208C5.88258 14.8956 7.4087 14.2634 9 14.2634C10.5913 14.2634 12.1174 14.8956 13.2426 16.0208C14.3679 17.146 15 18.6721 15 20.2634C15 20.5286 15.1054 20.783 15.2929 20.9705C15.4804 21.1581 15.7348 21.2634 16 21.2634C16.2652 21.2634 16.5196 21.1581 16.7071 20.9705C16.8946 20.783 17 20.5286 17 20.2634C16.9985 18.7267 16.5545 17.223 15.721 15.932C14.8875 14.641 13.6999 13.6173 12.3 12.9834ZM9 12.2634C8.40666 12.2634 7.82664 12.0875 7.33329 11.7578C6.83994 11.4282 6.45542 10.9597 6.22836 10.4115C6.0013 9.8633 5.94189 9.2601 6.05764 8.67816C6.1734 8.09621 6.45912 7.56167 6.87868 7.14211C7.29824 6.72255 7.83279 6.43683 8.41473 6.32107C8.99667 6.20532 9.59987 6.26473 10.1481 6.49179C10.6962 6.71885 11.1648 7.10337 11.4944 7.59672C11.8241 8.09006 12 8.67008 12 9.26343C12 10.0591 11.6839 10.8221 11.1213 11.3847C10.5587 11.9474 9.79565 12.2634 9 12.2634ZM18.74 12.5834C19.38 11.8628 19.798 10.9725 19.9438 10.0198C20.0896 9.06705 19.9569 8.0925 19.5618 7.21343C19.1666 6.33435 18.5258 5.58822 17.7165 5.06485C16.9071 4.54148 15.9638 4.26317 15 4.26343C14.7348 4.26343 14.4804 4.36878 14.2929 4.55632C14.1054 4.74386 14 4.99821 14 5.26343C14 5.52864 14.1054 5.783 14.2929 5.97053C14.4804 6.15807 14.7348 6.26343 15 6.26343C15.7956 6.26343 16.5587 6.5795 17.1213 7.14211C17.6839 7.70472 18 8.46778 18 9.26343C17.9986 9.78867 17.8593 10.3043 17.5961 10.7588C17.3328 11.2134 16.9549 11.5908 16.5 11.8534C16.3517 11.9389 16.2279 12.0611 16.1404 12.2082C16.0528 12.3552 16.0045 12.5223 16 12.6934C15.9958 12.8632 16.0349 13.0312 16.1137 13.1817C16.1924 13.3321 16.3081 13.4601 16.45 13.5534L16.84 13.8134L16.97 13.8834C18.1754 14.4551 19.1923 15.3594 19.901 16.4897C20.6096 17.6201 20.9805 18.9294 20.97 20.2634C20.97 20.5286 21.0754 20.783 21.2629 20.9705C21.4504 21.1581 21.7048 21.2634 21.97 21.2634C22.2352 21.2634 22.4896 21.1581 22.6771 20.9705C22.8646 20.783 22.97 20.5286 22.97 20.2634C22.9782 18.7289 22.5938 17.2177 21.8535 15.8735C21.1131 14.5293 20.0413 13.3967 18.74 12.5834Z" fill="#C6D2F2"/>
</svg>
