<svg width="24" height="25" viewBox="0 0 24 25" fill="none" xmlns="http://www.w3.org/2000/svg">
<path d="M20.0001 8.76343L14.0001 3.50343C13.4501 3.01148 12.738 2.7395 12.0001 2.7395C11.2622 2.7395 10.5501 3.01148 10.0001 3.50343L4.00009 8.76343C3.68246 9.04751 3.42899 9.39599 3.25657 9.78568C3.08414 10.1754 2.99671 10.5973 3.00009 11.0234V19.7634C3.00009 20.5591 3.31617 21.3221 3.87877 21.8848C4.44138 22.4474 5.20445 22.7634 6.00009 22.7634H18.0001C18.7957 22.7634 19.5588 22.4474 20.1214 21.8848C20.684 21.3221 21.0001 20.5591 21.0001 19.7634V11.0134C21.0021 10.589 20.9139 10.169 20.7416 9.78112C20.5692 9.39326 20.3165 9.04639 20.0001 8.76343V8.76343ZM14.0001 20.7634H10.0001V15.7634C10.0001 15.4982 10.1055 15.2439 10.293 15.0563C10.4805 14.8688 10.7349 14.7634 11.0001 14.7634H13.0001C13.2653 14.7634 13.5197 14.8688 13.7072 15.0563C13.8947 15.2439 14.0001 15.4982 14.0001 15.7634V20.7634ZM19.0001 19.7634C19.0001 20.0286 18.8947 20.283 18.7072 20.4705C18.5197 20.6581 18.2653 20.7634 18.0001 20.7634H16.0001V15.7634C16.0001 14.9678 15.684 14.2047 15.1214 13.6421C14.5588 13.0795 13.7957 12.7634 13.0001 12.7634H11.0001C10.2044 12.7634 9.44138 13.0795 8.87877 13.6421C8.31617 14.2047 8.00009 14.9678 8.00009 15.7634V20.7634H6.00009C5.73488 20.7634 5.48052 20.6581 5.29299 20.4705C5.10545 20.283 5.00009 20.0286 5.00009 19.7634V11.0134C5.00027 10.8714 5.03069 10.7311 5.08931 10.6018C5.14794 10.4725 5.23343 10.3571 5.3401 10.2634L11.3401 5.01343C11.5226 4.85311 11.7572 4.7647 12.0001 4.7647C12.243 4.7647 12.4776 4.85311 12.6601 5.01343L18.6601 10.2634C18.7668 10.3571 18.8523 10.4725 18.9109 10.6018C18.9695 10.7311 18.9999 10.8714 19.0001 11.0134V19.7634Z" fill="#C6D2F2"/>
</svg>
