<svg width="21" height="20" viewBox="0 0 21 20" fill="none" xmlns="http://www.w3.org/2000/svg">
<path d="M9.90867 9.99992L12.8587 7.04992C13.0139 6.89378 13.101 6.68257 13.101 6.46242C13.101 6.24226 13.0139 6.03105 12.8587 5.87492C12.7812 5.79681 12.689 5.73481 12.5875 5.69251C12.4859 5.6502 12.377 5.62842 12.267 5.62842C12.157 5.62842 12.0481 5.6502 11.9465 5.69251C11.845 5.73481 11.7528 5.79681 11.6753 5.87492L8.14201 9.40825C8.0639 9.48572 8.0019 9.57789 7.9596 9.67944C7.91729 9.78098 7.89551 9.88991 7.89551 9.99992C7.89551 10.1099 7.91729 10.2188 7.9596 10.3204C8.0019 10.4219 8.0639 10.5141 8.14201 10.5916L11.6753 14.1666C11.7532 14.2438 11.8456 14.3049 11.9471 14.3464C12.0486 14.3879 12.1573 14.4089 12.267 14.4082C12.3767 14.4089 12.4854 14.3879 12.5869 14.3464C12.6885 14.3049 12.7808 14.2438 12.8587 14.1666C13.0139 14.0104 13.101 13.7992 13.101 13.5791C13.101 13.3589 13.0139 13.1477 12.8587 12.9916L9.90867 9.99992Z" fill="#87949F"/>
</svg>
