<svg width="24" height="25" viewBox="0 0 24 25" fill="none" xmlns="http://www.w3.org/2000/svg">
<path d="M19.9912 2.76538C19.8599 2.76531 19.7298 2.79112 19.6084 2.84135C19.4871 2.89158 19.3768 2.96523 19.2839 3.05811C19.1911 3.15098 19.1174 3.26125 19.0672 3.38261C19.017 3.50397 18.9911 3.63404 18.9912 3.76538V4.4021C18.1478 5.4478 17.0819 6.29229 15.871 6.8741C14.66 7.45591 13.3346 7.76039 11.9912 7.76538H5.99121C5.19583 7.76625 4.43327 8.0826 3.87085 8.64502C3.30843 9.20744 2.99208 9.97 2.99121 10.7654V12.7654C2.99208 13.5608 3.30843 14.3233 3.87085 14.8857C4.43327 15.4482 5.19583 15.7645 5.99121 15.7654H6.475L4.07227 21.3718C4.00698 21.5238 3.98047 21.6897 3.99512 21.8546C4.00978 22.0194 4.06514 22.178 4.15624 22.3162C4.24734 22.4543 4.37133 22.5677 4.51706 22.6461C4.6628 22.7245 4.82572 22.7655 4.99121 22.7654H8.99121C9.18696 22.7655 9.37843 22.7081 9.54182 22.6003C9.7052 22.4924 9.83329 22.339 9.91016 22.1589L12.6339 15.8034C13.8646 15.8937 15.0636 16.2354 16.157 16.8073C17.2505 17.3792 18.215 18.1692 18.9912 19.1285V19.7654C18.9912 20.0306 19.0966 20.285 19.2841 20.4725C19.4716 20.66 19.726 20.7654 19.9912 20.7654C20.2564 20.7654 20.5108 20.66 20.6983 20.4725C20.8859 20.285 20.9912 20.0306 20.9912 19.7654V3.76538C20.9913 3.63404 20.9655 3.50397 20.9152 3.38261C20.865 3.26125 20.7914 3.15098 20.6985 3.0581C20.6056 2.96523 20.4953 2.89157 20.374 2.84135C20.2526 2.79112 20.1226 2.7653 19.9912 2.76538ZM5.99121 13.7654C5.72605 13.7652 5.4718 13.6598 5.2843 13.4723C5.0968 13.2848 4.99139 13.0305 4.99121 12.7654V10.7654C4.99139 10.5002 5.09681 10.246 5.2843 10.0585C5.4718 9.87098 5.72605 9.76556 5.99121 9.76538H6.99121V13.7654H5.99121ZM8.33203 20.7654H6.50781L8.65039 15.7654H10.4746L8.33203 20.7654ZM18.9912 16.2872C17.0195 14.6628 14.5459 13.7717 11.9912 13.7653H8.99121V9.76533H11.9912C14.5459 9.7588 17.0195 8.86749 18.9912 7.24299V16.2872Z" fill="#C6D2F2"/>
</svg>
