<svg width="32" height="33" viewBox="0 0 32 33" fill="none" xmlns="http://www.w3.org/2000/svg">
<circle cx="28" cy="4.5" r="4" fill="#E94547"/>
<path d="M23.9997 18.0734V13.8334C23.9978 11.9442 23.3273 10.1167 22.1072 8.67445C20.887 7.23219 19.1958 6.26828 17.333 5.95341V4.50008C17.333 4.14646 17.1925 3.80732 16.9425 3.55727C16.6924 3.30722 16.3533 3.16675 15.9997 3.16675C15.6461 3.16675 15.3069 3.30722 15.0569 3.55727C14.8068 3.80732 14.6663 4.14646 14.6663 4.50008V5.95341C12.8036 6.26828 11.1124 7.23219 9.89219 8.67445C8.672 10.1167 8.00159 11.9442 7.99967 13.8334V18.0734C7.22161 18.3485 6.54767 18.8575 6.07026 19.5307C5.59285 20.2038 5.33533 21.0082 5.33301 21.8334V24.5001C5.33301 24.8537 5.47348 25.1928 5.72353 25.4429C5.97358 25.6929 6.31272 25.8334 6.66634 25.8334H10.853C11.1601 26.9632 11.8303 27.9606 12.7605 28.6717C13.6906 29.3828 14.8289 29.7681 15.9997 29.7681C17.1705 29.7681 18.3088 29.3828 19.2389 28.6717C20.169 27.9606 20.8393 26.9632 21.1463 25.8334H25.333C25.6866 25.8334 26.0258 25.6929 26.2758 25.4429C26.5259 25.1928 26.6663 24.8537 26.6663 24.5001V21.8334C26.664 21.0082 26.4065 20.2038 25.9291 19.5307C25.4517 18.8575 24.7777 18.3485 23.9997 18.0734ZM10.6663 13.8334C10.6663 12.4189 11.2282 11.0624 12.2284 10.0622C13.2286 9.06198 14.5852 8.50008 15.9997 8.50008C17.4142 8.50008 18.7707 9.06198 19.7709 10.0622C20.7711 11.0624 21.333 12.4189 21.333 13.8334V17.8334H10.6663V13.8334ZM15.9997 27.1667C15.5343 27.1639 15.0778 27.0394 14.6754 26.8055C14.2731 26.5716 13.939 26.2365 13.7063 25.8334H18.293C18.0603 26.2365 17.7262 26.5716 17.3239 26.8055C16.9216 27.0394 16.465 27.1639 15.9997 27.1667ZM23.9997 23.1667H7.99967V21.8334C7.99967 21.4798 8.14015 21.1407 8.3902 20.8906C8.64025 20.6406 8.97939 20.5001 9.33301 20.5001H22.6663C23.02 20.5001 23.3591 20.6406 23.6091 20.8906C23.8592 21.1407 23.9997 21.4798 23.9997 21.8334V23.1667Z" fill="#87949F"/>
</svg>
