<svg width="20" height="21" viewBox="0 0 20 21" fill="none" xmlns="http://www.w3.org/2000/svg">
<path d="M19 12.7634H18V1.76343C18 1.49821 17.8946 1.24386 17.7071 1.05632C17.5196 0.868785 17.2652 0.763428 17 0.763428H3C2.73478 0.763428 2.48043 0.868785 2.29289 1.05632C2.10536 1.24386 2 1.49821 2 1.76343V12.7634H1C0.734784 12.7634 0.48043 12.8688 0.292893 13.0563C0.105357 13.2439 0 13.4982 0 13.7634C0 14.0286 0.105357 14.283 0.292893 14.4705C0.48043 14.6581 0.734784 14.7634 1 14.7634H9V15.9134L4.45 18.9134C4.26333 19.029 4.11988 19.2027 4.04177 19.4079C3.96366 19.6131 3.95523 19.8382 4.01779 20.0487C4.08035 20.2591 4.21042 20.4431 4.38793 20.5723C4.56544 20.7015 4.78053 20.7686 5 20.7634C5.1966 20.7657 5.38896 20.7062 5.55 20.5934L9 18.3134V19.7634C9 20.0286 9.10536 20.283 9.29289 20.4705C9.48043 20.6581 9.73478 20.7634 10 20.7634C10.2652 20.7634 10.5196 20.6581 10.7071 20.4705C10.8946 20.283 11 20.0286 11 19.7634V18.3134L14.45 20.5934C14.611 20.7062 14.8034 20.7657 15 20.7634C15.2136 20.7618 15.4212 20.6917 15.5921 20.5636C15.7631 20.4354 15.8885 20.2559 15.95 20.0513C16.0115 19.8467 16.0058 19.6277 15.9338 19.4266C15.8619 19.2254 15.7273 19.0526 15.55 18.9334L11 15.9334V14.7634H19C19.2652 14.7634 19.5196 14.6581 19.7071 14.4705C19.8946 14.283 20 14.0286 20 13.7634C20 13.4982 19.8946 13.2439 19.7071 13.0563C19.5196 12.8688 19.2652 12.7634 19 12.7634ZM16 12.7634H4V2.76343H16V12.7634ZM7 10.7634C7.16471 10.7626 7.32665 10.7211 7.47145 10.6425C7.61625 10.564 7.73941 10.451 7.83 10.3134L9.16 8.31343L10.29 9.45343C10.3949 9.559 10.5221 9.63982 10.6622 9.68999C10.8023 9.74016 10.9519 9.75842 11.1 9.74343C11.2474 9.72725 11.3894 9.67848 11.5157 9.60065C11.6419 9.52282 11.7493 9.41788 11.83 9.29343L13.83 6.29343C13.9478 6.07386 13.9793 5.81823 13.9185 5.57661C13.8577 5.33498 13.7089 5.12477 13.5012 4.98714C13.2935 4.84951 13.0419 4.79437 12.7956 4.83253C12.5494 4.87068 12.3263 4.99939 12.17 5.19343L10.84 7.19343L9.71 6.05343C9.60508 5.94786 9.47791 5.86704 9.33778 5.81686C9.19765 5.76669 9.04809 5.74844 8.9 5.76343C8.75256 5.7796 8.61057 5.82837 8.48431 5.9062C8.35806 5.98404 8.25069 6.08898 8.17 6.21343L6.17 9.21343C6.02527 9.43389 5.97349 9.70261 6.02593 9.96107C6.07837 10.2195 6.23079 10.4468 6.45 10.5934C6.61104 10.7062 6.8034 10.7657 7 10.7634V10.7634Z" fill="#C6D2F2"/>
</svg>
