<svg width="21" height="20" viewBox="0 0 21 20" fill="none" xmlns="http://www.w3.org/2000/svg">
<path d="M12.8584 9.40825L9.32507 5.87492C9.24761 5.79681 9.15544 5.73481 9.05389 5.69251C8.95234 5.6502 8.84342 5.62842 8.73341 5.62842C8.6234 5.62842 8.51448 5.6502 8.41293 5.69251C8.31138 5.73481 8.21921 5.79681 8.14174 5.87492C7.98653 6.03105 7.89941 6.24226 7.89941 6.46242C7.89941 6.68257 7.98653 6.89378 8.14174 7.04992L11.0917 9.99992L8.14174 12.9499C7.98653 13.1061 7.89941 13.3173 7.89941 13.5374C7.89941 13.7576 7.98653 13.9688 8.14174 14.1249C8.21961 14.2022 8.31195 14.2633 8.41349 14.3047C8.51502 14.3462 8.62374 14.3672 8.73341 14.3666C8.84308 14.3672 8.9518 14.3462 9.05333 14.3047C9.15486 14.2633 9.24721 14.2022 9.32507 14.1249L12.8584 10.5916C12.9365 10.5141 12.9985 10.4219 13.0408 10.3204C13.0831 10.2188 13.1049 10.1099 13.1049 9.99992C13.1049 9.88991 13.0831 9.78098 13.0408 9.67944C12.9985 9.57789 12.9365 9.48572 12.8584 9.40825Z" fill="#87949F"/>
</svg>
