<svg width="24" height="25" viewBox="0 0 24 25" fill="none" xmlns="http://www.w3.org/2000/svg">
<path d="M17.8215 22.7634H3.6684C3.24338 22.7634 2.90337 22.4237 2.86087 21.9991L2.01083 14.2284C1.96833 14.0161 2.05333 13.8038 2.22334 13.6339C2.39335 13.4641 2.60586 13.3792 2.86087 13.3792H21.1791C21.4766 13.3792 21.7317 13.5065 21.8592 13.7613C22.0292 14.0161 22.0292 14.2709 21.9442 14.5681L18.629 22.3388C18.459 22.5936 18.1615 22.7634 17.8215 22.7634ZM4.43343 21.1074H17.3115L19.9466 14.9927H3.79591L4.43343 21.1074Z" fill="#EAF0FF"/>
<path d="M7.28096 18.0076H6.77093C6.30341 18.0076 5.9209 17.6254 5.9209 17.1583C5.9209 16.6912 6.30341 16.3091 6.77093 16.3091H7.28096C7.74847 16.3091 8.13099 16.6912 8.13099 17.1583C8.08849 17.6254 7.70597 18.0076 7.28096 18.0076Z" fill="#C6D2F2"/>
<path d="M11.446 18.0076H10.936C10.4685 18.0076 10.0859 17.6254 10.0859 17.1583C10.0859 16.6912 10.4685 16.3091 10.936 16.3091H11.446C11.9135 16.3091 12.296 16.6912 12.296 17.1583C12.2535 17.6254 11.871 18.0076 11.446 18.0076Z" fill="#C6D2F2"/>
<path d="M15.611 18.0076H15.101C14.6335 18.0076 14.251 17.6254 14.251 17.1583C14.251 16.6912 14.6335 16.3091 15.101 16.3091H15.611C16.0786 16.3091 16.4611 16.6912 16.4611 17.1583C16.4186 17.6254 16.0361 18.0076 15.611 18.0076Z" fill="#C6D2F2"/>
<path d="M15.9505 14.9927H4.56C4.09248 14.9927 3.70996 14.6106 3.70996 14.1435V8.92055C3.70996 8.45345 4.09248 8.07129 4.56 8.07129H15.9505C16.418 8.07129 16.8005 8.45345 16.8005 8.92055V14.1859C16.8005 14.653 16.418 14.9927 15.9505 14.9927ZM5.36753 13.3367H15.1004V9.72734H5.36753V13.3367Z" fill="#C6D2F2"/>
<path d="M13.1889 9.72733H7.32367C6.85615 9.72733 6.47363 9.34517 6.47363 8.87808V3.61268C6.47363 3.14559 6.85615 2.76343 7.32367 2.76343H13.1889C13.6564 2.76343 14.0389 3.14559 14.0389 3.61268V8.87808C14.0389 9.34517 13.6564 9.72733 13.1889 9.72733ZM8.1312 8.07128H12.3389V4.46194H8.1312V8.07128Z" fill="#C6D2F2"/>
</svg>
