<svg width="1920" height="960" viewBox="0 0 1920 960" fill="none" xmlns="http://www.w3.org/2000/svg">
<g clip-path="url(#clip0_176_5679)">
<rect width="1920" height="960" fill="#122046"/>
<path d="M362.478 1028.28C474.056 983.976 528.59 857.607 484.283 746.029C439.976 634.451 313.607 579.918 202.029 624.225C90.4515 668.532 35.9178 794.901 80.2247 906.478C124.532 1018.06 250.901 1072.59 362.478 1028.28Z" fill="url(#paint0_linear_176_5679)" fill-opacity="0.6"/>
<path d="M1704.77 70.2292C1537.56 136.63 1455.83 326.014 1522.23 493.231C1588.63 660.447 1778.01 742.174 1945.23 675.773C2112.45 609.373 2194.17 419.989 2127.77 252.772C2061.37 85.5557 1871.99 3.82846 1704.77 70.2292Z" fill="url(#paint1_linear_176_5679)" fill-opacity="0.6"/>
<path d="M817.851 349.866C822.633 357.26 829.328 361.792 837.936 361.792C847.022 361.792 853.478 356.783 853.478 348.673C853.478 341.279 850.13 338.655 841.044 334.362L833.871 331.023C831.002 329.592 828.611 328.399 826.698 327.207C823.111 324.822 820.003 321.005 820.003 315.042C820.003 310.272 821.676 306.694 825.024 304.071C828.371 301.447 832.675 300.016 837.697 300.016C845.587 300.016 851.804 303.594 855.869 309.557L853.478 311.465C849.413 305.74 844.153 303.117 837.697 303.117C833.871 303.117 830.284 304.071 827.415 305.979C824.546 307.887 823.111 310.749 823.111 314.804C823.589 322.198 826.937 324.345 835.066 328.399L842.24 331.739C851.804 336.27 856.586 340.325 856.586 348.912C856.586 358.452 848.456 365.131 837.697 365.131C828.132 365.131 820.481 360.122 815.46 351.774L817.851 349.866Z" fill="white"/>
<path d="M904.647 363.938H901.777V355.829C898.43 361.553 891.974 364.892 884.562 364.892C880.258 364.892 876.432 363.938 873.563 361.792C870.454 359.645 869.02 356.783 869.02 352.728C869.02 345.572 875.236 340.802 884.801 340.802H902.016V334.839C902.016 325.299 896.517 320.051 888.148 320.051C881.931 320.051 877.628 322.913 873.802 328.161L871.65 326.491C876.193 320.528 881.453 317.428 888.387 317.428C898.43 317.428 904.886 323.629 904.886 335.078V363.938H904.647ZM901.777 343.664H884.801C876.671 343.664 872.128 347.004 872.128 352.728C872.128 358.929 877.867 362.269 884.801 362.269C893.887 362.269 901.777 355.829 901.777 347.481V343.664Z" fill="white"/>
<path d="M925.927 318.143H938.361V320.767H925.927V363.938H923.058V320.767H916.363V318.143H923.058V304.309C923.058 295.484 928.079 291.429 935.97 291.429C937.643 291.429 939.317 291.668 940.752 291.906V294.53C938.839 294.292 937.404 294.053 936.209 294.053C929.275 294.053 925.927 297.392 925.927 304.309V318.143Z" fill="white"/>
<path d="M947.925 341.279C947.925 352.966 957.011 362.03 968.249 362.03C974.944 362.03 980.683 359.168 984.508 353.92L986.66 355.59C982.356 361.314 975.661 364.654 968.249 364.654C955.337 364.654 944.817 353.92 944.817 340.802C944.817 327.684 955.098 316.951 967.771 316.951C978.77 316.951 988.095 324.822 988.095 337.224C988.095 338.178 988.095 339.61 987.856 341.041H947.925V341.279ZM985.226 338.655C985.943 327.207 977.574 320.051 967.771 320.051C957.489 320.051 949.121 328.161 948.164 338.655H985.226Z" fill="white"/>
<path d="M1029.22 363.938C1026.11 364.654 1023.24 364.892 1020.85 364.892C1010.09 364.892 1003.64 359.645 1003.64 348.673V325.776H995.985V317.189H1003.64V304.786H1013.68V317.189H1027.55V325.776H1013.68V347.719C1013.68 353.682 1016.79 355.829 1023 355.829C1024.44 355.829 1026.35 355.59 1029.22 355.352V363.938Z" fill="white"/>
<path d="M1066.04 326.014H1062.94C1055.04 326.014 1049.07 330.784 1049.07 338.894V363.938H1039.02V317.189H1048.35V323.39C1051.7 319.097 1056.72 316.712 1061.98 316.712C1063.41 316.712 1064.61 316.951 1065.8 317.189V326.014H1066.04Z" fill="white"/>
<path d="M1111.47 363.938H1102.15V358.691C1098.8 362.746 1093.54 364.892 1087.09 364.892C1077.28 364.892 1070.83 359.406 1070.83 351.297C1070.83 343.187 1077.52 337.94 1088.04 337.94H1101.43V334.839C1101.43 328.399 1097.85 324.822 1091.39 324.822C1086.13 324.822 1082.3 327.207 1078.48 331.739L1072.74 325.776C1077.52 319.097 1084.46 315.758 1092.58 315.758C1104.06 315.758 1111.71 322.675 1111.71 335.316V363.938H1111.47ZM1101.43 345.334H1089.48C1084.22 345.334 1081.11 347.242 1081.11 351.058C1081.11 354.875 1084.46 357.26 1089.24 357.26C1095.93 357.26 1101.43 352.489 1101.43 346.288V345.334Z" fill="white"/>
<path d="M1171.25 292.383V363.938H1161.93V357.26C1158.58 362.03 1152.36 364.892 1145.43 364.892C1132.28 364.892 1122.47 354.398 1122.47 340.564C1122.23 326.968 1132.52 315.758 1145.43 315.996C1151.88 315.996 1157.62 318.382 1161.21 322.675V292.383H1171.25ZM1147.1 325.299C1138.97 325.299 1132.75 331.5 1132.75 340.564C1132.75 349.627 1138.97 355.829 1147.1 355.829C1154.51 355.829 1161.21 350.82 1161.21 340.564C1161.21 330.546 1154.51 325.299 1147.1 325.299Z" fill="white"/>
<path d="M1193.01 343.903C1194.21 351.535 1200.18 356.306 1208.31 356.306C1213.09 356.306 1217.88 354.398 1221.94 350.82L1226.72 357.737C1221.46 362.746 1215.25 365.369 1208.07 365.369C1193.73 365.369 1182.73 354.875 1182.73 341.041C1182.49 327.684 1193.73 316.235 1207.12 316.474C1219.55 316.474 1228.88 325.776 1228.88 337.94C1228.88 339.848 1228.64 341.995 1228.16 344.141H1193.01V343.903ZM1218.83 336.032C1218.83 328.876 1213.33 324.583 1206.88 324.583C1200.42 324.583 1194.92 329.115 1193.49 336.032H1218.83Z" fill="white"/>
<path d="M1256.61 315.519V336.509H1253.26V319.574L1248.96 321.005L1248.24 318.143L1255.42 315.758H1256.61V315.519Z" fill="#F07D1A"/>
<path d="M1265.22 318.143C1266.65 316.235 1268.57 315.281 1271.2 315.281C1273.83 315.281 1275.74 316.235 1277.18 318.143C1278.61 320.051 1279.33 322.675 1279.33 325.776C1279.33 331.977 1276.7 336.747 1271.44 336.747C1266.18 336.747 1263.55 331.977 1263.55 325.776C1263.31 322.675 1263.79 320.051 1265.22 318.143ZM1271.2 318.382C1268.09 318.382 1266.65 321.005 1266.65 326.014C1266.65 331.023 1268.09 333.885 1271.2 333.885C1274.31 333.885 1275.74 331.023 1275.74 326.014C1275.74 320.767 1274.31 318.382 1271.2 318.382Z" fill="#F07D1A"/>
<path d="M1292 315.519V336.509H1288.65V319.574L1284.35 321.005L1283.63 318.143L1290.8 315.758H1292V315.519Z" fill="#F07D1A"/>
<path d="M728.186 399H637.803C632.304 399 628 394.707 628 389.221C628 383.735 632.304 379.442 637.803 379.442H728.186C743.728 379.442 756.4 366.8 756.4 351.297C756.4 335.793 743.728 323.152 728.186 323.152H687.299C681.799 323.152 677.495 318.859 677.495 313.373C677.495 307.887 681.799 303.594 687.299 303.594H728.186C754.727 303.594 776.246 325.06 776.246 351.535C776.246 378.011 754.488 399 728.186 399Z" fill="url(#paint2_linear_176_5679)"/>
<path d="M677.256 311.465V314.804C677.256 319.336 680.843 322.913 685.386 322.913H688.733C693.276 322.913 696.863 319.336 696.863 314.804V311.465C696.863 306.933 693.276 303.355 688.733 303.355H685.386C680.843 303.355 677.256 306.933 677.256 311.465Z" fill="url(#paint3_linear_176_5679)"/>
<path d="M717.426 359.883H676.539C649.998 359.883 628.478 338.417 628.478 311.942C628.478 285.466 649.998 264 676.539 264H766.921C772.42 264 776.724 268.293 776.724 273.779C776.724 279.265 772.42 283.558 766.921 283.558H676.539C660.997 283.558 648.324 296.2 648.324 311.703C648.324 327.207 660.997 339.848 676.539 339.848H717.426C722.925 339.848 727.229 344.141 727.229 349.627C727.229 355.59 722.925 359.883 717.426 359.883Z" fill="url(#paint4_linear_176_5679)"/>
<path d="M727.468 351.774V348.435C727.468 343.903 723.882 340.325 719.339 340.325H715.991C711.448 340.325 707.862 343.903 707.862 348.435V351.774C707.862 356.306 711.448 359.883 715.991 359.883H719.339C723.882 360.122 727.468 356.306 727.468 351.774Z" fill="url(#paint5_linear_176_5679)"/>
<path d="M611.123 578H596.475V506.906H611.123V578ZM636.807 525.168L637.246 531.271C641.022 526.551 646.084 524.191 652.432 524.191C658.031 524.191 662.197 525.835 664.932 529.123C667.666 532.411 669.066 537.326 669.131 543.869V578H655.02V544.211C655.02 541.216 654.368 539.051 653.066 537.717C651.764 536.35 649.6 535.666 646.572 535.666C642.601 535.666 639.622 537.359 637.637 540.744V578H623.525V525.168H636.807ZM696.768 512.18V525.168H705.801V535.52H696.768V561.887C696.768 563.84 697.142 565.24 697.891 566.086C698.639 566.932 700.072 567.355 702.188 567.355C703.75 567.355 705.133 567.242 706.338 567.014V577.707C703.571 578.553 700.723 578.977 697.793 578.977C687.897 578.977 682.852 573.98 682.656 563.986V535.52H674.941V525.168H682.656V512.18H696.768ZM737.979 578.977C730.231 578.977 723.916 576.6 719.033 571.848C714.183 567.095 711.758 560.764 711.758 552.854V551.486C711.758 546.18 712.783 541.444 714.834 537.277C716.885 533.078 719.782 529.855 723.525 527.609C727.301 525.331 731.598 524.191 736.416 524.191C743.643 524.191 749.323 526.47 753.457 531.027C757.624 535.585 759.707 542.046 759.707 550.412V556.174H726.064C726.52 559.624 727.887 562.391 730.166 564.475C732.477 566.558 735.391 567.6 738.906 567.6C744.342 567.6 748.59 565.63 751.65 561.691L758.584 569.455C756.468 572.45 753.604 574.794 749.99 576.486C746.377 578.146 742.373 578.977 737.979 578.977ZM736.367 535.617C733.568 535.617 731.289 536.561 729.531 538.449C727.806 540.337 726.699 543.039 726.211 546.555H745.84V545.432C745.775 542.307 744.928 539.898 743.301 538.205C741.673 536.48 739.362 535.617 736.367 535.617ZM797.451 538.4C795.531 538.14 793.838 538.01 792.373 538.01C787.035 538.01 783.535 539.816 781.875 543.43V578H767.764V525.168H781.094L781.484 531.467C784.316 526.617 788.239 524.191 793.252 524.191C794.814 524.191 796.279 524.403 797.646 524.826L797.451 538.4ZM809.121 578V535.52H801.26V525.168H809.121V520.676C809.121 514.751 810.814 510.161 814.199 506.906C817.617 503.618 822.386 501.975 828.506 501.975C830.459 501.975 832.852 502.3 835.684 502.951L835.537 513.889C834.365 513.596 832.933 513.449 831.24 513.449C825.934 513.449 823.281 515.939 823.281 520.92V525.168H833.779V535.52H823.281V578H809.121ZM871.719 578C871.068 576.73 870.596 575.152 870.303 573.264C866.885 577.072 862.441 578.977 856.973 578.977C851.797 578.977 847.5 577.479 844.082 574.484C840.697 571.49 839.004 567.714 839.004 563.156C839.004 557.557 841.071 553.26 845.205 550.266C849.372 547.271 855.378 545.757 863.223 545.725H869.717V542.697C869.717 540.256 869.082 538.303 867.812 536.838C866.576 535.373 864.606 534.641 861.904 534.641C859.528 534.641 857.656 535.21 856.289 536.35C854.954 537.489 854.287 539.051 854.287 541.037H840.176C840.176 537.977 841.12 535.145 843.008 532.541C844.896 529.937 847.565 527.902 851.016 526.438C854.466 524.94 858.34 524.191 862.637 524.191C869.147 524.191 874.307 525.835 878.115 529.123C881.956 532.378 883.877 536.968 883.877 542.893V565.793C883.91 570.806 884.609 574.598 885.977 577.17V578H871.719ZM860.049 568.186C862.132 568.186 864.053 567.73 865.811 566.818C867.568 565.874 868.87 564.621 869.717 563.059V553.977H864.443C857.38 553.977 853.62 556.418 853.164 561.301L853.115 562.131C853.115 563.889 853.734 565.337 854.971 566.477C856.208 567.616 857.9 568.186 860.049 568.186ZM916.689 567.6C919.294 567.6 921.41 566.883 923.037 565.451C924.665 564.019 925.511 562.115 925.576 559.738H938.809C938.776 563.319 937.799 566.607 935.879 569.602C933.958 572.564 931.322 574.875 927.969 576.535C924.648 578.163 920.97 578.977 916.934 578.977C909.382 578.977 903.424 576.584 899.062 571.799C894.701 566.981 892.52 560.34 892.52 551.877V550.949C892.52 542.811 894.684 536.317 899.014 531.467C903.343 526.617 909.284 524.191 916.836 524.191C923.444 524.191 928.734 526.079 932.705 529.855C936.709 533.599 938.743 538.596 938.809 544.846H925.576C925.511 542.111 924.665 539.898 923.037 538.205C921.41 536.48 919.261 535.617 916.592 535.617C913.304 535.617 910.814 536.822 909.121 539.23C907.461 541.607 906.631 545.48 906.631 550.852V552.316C906.631 557.753 907.461 561.659 909.121 564.035C910.781 566.411 913.304 567.6 916.689 567.6ZM971.182 578.977C963.434 578.977 957.119 576.6 952.236 571.848C947.386 567.095 944.961 560.764 944.961 552.854V551.486C944.961 546.18 945.986 541.444 948.037 537.277C950.088 533.078 952.985 529.855 956.729 527.609C960.505 525.331 964.801 524.191 969.619 524.191C976.846 524.191 982.526 526.47 986.66 531.027C990.827 535.585 992.91 542.046 992.91 550.412V556.174H959.268C959.723 559.624 961.09 562.391 963.369 564.475C965.68 566.558 968.594 567.6 972.109 567.6C977.546 567.6 981.794 565.63 984.854 561.691L991.787 569.455C989.671 572.45 986.807 574.794 983.193 576.486C979.58 578.146 975.576 578.977 971.182 578.977ZM969.57 535.617C966.771 535.617 964.492 536.561 962.734 538.449C961.009 540.337 959.902 543.039 959.414 546.555H979.043V545.432C978.978 542.307 978.132 539.898 976.504 538.205C974.876 536.48 972.565 535.617 969.57 535.617ZM1026.8 578V506.906H1048.67C1054.92 506.906 1060.5 508.322 1065.42 511.154C1070.37 513.954 1074.23 517.958 1076.99 523.166C1079.76 528.342 1081.14 534.234 1081.14 540.842V544.113C1081.14 550.721 1079.78 556.597 1077.04 561.74C1074.34 566.883 1070.51 570.871 1065.57 573.703C1060.62 576.535 1055.04 577.967 1048.82 578H1026.8ZM1041.45 518.771V566.232H1048.53C1054.25 566.232 1058.63 564.361 1061.66 560.617C1064.69 556.874 1066.23 551.519 1066.3 544.553V540.793C1066.3 533.566 1064.8 528.098 1061.81 524.387C1058.81 520.643 1054.43 518.771 1048.67 518.771H1041.45ZM1115.22 578.977C1107.48 578.977 1101.16 576.6 1096.28 571.848C1091.43 567.095 1089 560.764 1089 552.854V551.486C1089 546.18 1090.03 541.444 1092.08 537.277C1094.13 533.078 1097.03 529.855 1100.77 527.609C1104.55 525.331 1108.84 524.191 1113.66 524.191C1120.89 524.191 1126.57 526.47 1130.7 531.027C1134.87 535.585 1136.95 542.046 1136.95 550.412V556.174H1103.31C1103.77 559.624 1105.13 562.391 1107.41 564.475C1109.72 566.558 1112.64 567.6 1116.15 567.6C1121.59 567.6 1125.84 565.63 1128.9 561.691L1135.83 569.455C1133.71 572.45 1130.85 574.794 1127.24 576.486C1123.62 578.146 1119.62 578.977 1115.22 578.977ZM1113.61 535.617C1110.81 535.617 1108.54 536.561 1106.78 538.449C1105.05 540.337 1103.95 543.039 1103.46 546.555H1123.09V545.432C1123.02 542.307 1122.17 539.898 1120.55 538.205C1118.92 536.48 1116.61 535.617 1113.61 535.617ZM1173.62 563.4C1173.62 561.675 1172.76 560.324 1171.04 559.348C1169.34 558.339 1166.61 557.443 1162.83 556.662C1150.27 554.025 1143.98 548.687 1143.98 540.646C1143.98 535.959 1145.92 532.053 1149.79 528.928C1153.7 525.77 1158.8 524.191 1165.08 524.191C1171.78 524.191 1177.14 525.77 1181.14 528.928C1185.18 532.085 1187.2 536.187 1187.2 541.232H1173.09C1173.09 539.214 1172.43 537.554 1171.13 536.252C1169.83 534.917 1167.8 534.25 1165.03 534.25C1162.65 534.25 1160.81 534.787 1159.51 535.861C1158.21 536.936 1157.56 538.303 1157.56 539.963C1157.56 541.525 1158.29 542.795 1159.76 543.771C1161.25 544.715 1163.76 545.546 1167.28 546.262C1170.79 546.945 1173.75 547.727 1176.16 548.605C1183.62 551.34 1187.34 556.076 1187.34 562.814C1187.34 567.632 1185.28 571.538 1181.14 574.533C1177.01 577.495 1171.67 578.977 1165.13 578.977C1160.7 578.977 1156.76 578.195 1153.31 576.633C1149.89 575.038 1147.21 572.873 1145.25 570.139C1143.3 567.372 1142.32 564.393 1142.32 561.203H1155.7C1155.83 563.71 1156.76 565.63 1158.49 566.965C1160.21 568.299 1162.52 568.967 1165.42 568.967C1168.12 568.967 1170.16 568.462 1171.52 567.453C1172.92 566.411 1173.62 565.061 1173.62 563.4ZM1211.37 578H1197.21V525.168H1211.37V578ZM1196.38 511.496C1196.38 509.38 1197.08 507.639 1198.48 506.271C1199.91 504.904 1201.85 504.221 1204.29 504.221C1206.7 504.221 1208.62 504.904 1210.05 506.271C1211.48 507.639 1212.2 509.38 1212.2 511.496C1212.2 513.645 1211.46 515.402 1210 516.77C1208.57 518.137 1206.66 518.82 1204.29 518.82C1201.91 518.82 1199.99 518.137 1198.53 516.77C1197.09 515.402 1196.38 513.645 1196.38 511.496ZM1220.99 551.193C1220.99 543.088 1222.91 536.561 1226.75 531.613C1230.62 526.665 1235.83 524.191 1242.37 524.191C1248.17 524.191 1252.68 526.177 1255.9 530.148L1256.48 525.168H1269.28V576.242C1269.28 580.865 1268.22 584.885 1266.1 588.303C1264.02 591.721 1261.07 594.325 1257.27 596.115C1253.46 597.906 1249 598.801 1243.89 598.801C1240.01 598.801 1236.24 598.02 1232.56 596.457C1228.88 594.927 1226.1 592.941 1224.21 590.5L1230.46 581.906C1233.97 585.845 1238.24 587.814 1243.25 587.814C1247 587.814 1249.91 586.805 1251.99 584.787C1254.08 582.801 1255.12 579.969 1255.12 576.291V573.459C1251.86 577.137 1247.58 578.977 1242.28 578.977C1235.93 578.977 1230.78 576.503 1226.85 571.555C1222.94 566.574 1220.99 559.982 1220.99 551.779V551.193ZM1235.1 552.219C1235.1 557.004 1236.06 560.764 1237.98 563.498C1239.9 566.2 1242.54 567.551 1245.89 567.551C1250.19 567.551 1253.26 565.939 1255.12 562.717V540.5C1253.23 537.277 1250.19 535.666 1245.99 535.666C1242.6 535.666 1239.93 537.049 1237.98 539.816C1236.06 542.583 1235.1 546.717 1235.1 552.219ZM1293.15 525.168L1293.59 531.271C1297.37 526.551 1302.43 524.191 1308.78 524.191C1314.38 524.191 1318.54 525.835 1321.28 529.123C1324.01 532.411 1325.41 537.326 1325.48 543.869V578H1311.37V544.211C1311.37 541.216 1310.72 539.051 1309.41 537.717C1308.11 536.35 1305.95 535.666 1302.92 535.666C1298.95 535.666 1295.97 537.359 1293.98 540.744V578H1279.87V525.168H1293.15Z" fill="white"/>
<path d="M625 672C625 659.297 635.297 649 648 649H809V695H648C635.297 695 625 684.703 625 672Z" fill="#284BAD"/>
<path d="M646.992 664.2H654.624C656.448 664.2 658.056 664.552 659.448 665.256C660.856 665.944 661.944 666.92 662.712 668.184C663.496 669.448 663.888 670.92 663.888 672.6C663.888 674.28 663.496 675.752 662.712 677.016C661.944 678.28 660.856 679.264 659.448 679.968C658.056 680.656 656.448 681 654.624 681H646.992V664.2ZM654.432 677.808C656.112 677.808 657.448 677.344 658.44 676.416C659.448 675.472 659.952 674.2 659.952 672.6C659.952 671 659.448 669.736 658.44 668.808C657.448 667.864 656.112 667.392 654.432 667.392H650.88V677.808H654.432ZM666.82 664.2H670.708V681H666.82V664.2ZM680.215 681.288C678.887 681.288 677.599 681.112 676.351 680.76C675.119 680.392 674.127 679.92 673.375 679.344L674.695 676.416C675.415 676.944 676.271 677.368 677.263 677.688C678.255 678.008 679.247 678.168 680.239 678.168C681.343 678.168 682.159 678.008 682.687 677.688C683.215 677.352 683.479 676.912 683.479 676.368C683.479 675.968 683.319 675.64 682.999 675.384C682.695 675.112 682.295 674.896 681.799 674.736C681.319 674.576 680.663 674.4 679.831 674.208C678.551 673.904 677.503 673.6 676.687 673.296C675.871 672.992 675.167 672.504 674.575 671.832C673.999 671.16 673.711 670.264 673.711 669.144C673.711 668.168 673.975 667.288 674.503 666.504C675.031 665.704 675.823 665.072 676.879 664.608C677.951 664.144 679.255 663.912 680.791 663.912C681.863 663.912 682.911 664.04 683.935 664.296C684.959 664.552 685.855 664.92 686.623 665.4L685.423 668.352C683.871 667.472 682.319 667.032 680.767 667.032C679.679 667.032 678.871 667.208 678.343 667.56C677.831 667.912 677.575 668.376 677.575 668.952C677.575 669.528 677.871 669.96 678.463 670.248C679.071 670.52 679.991 670.792 681.223 671.064C682.503 671.368 683.551 671.672 684.367 671.976C685.183 672.28 685.879 672.76 686.455 673.416C687.047 674.072 687.343 674.96 687.343 676.08C687.343 677.04 687.071 677.92 686.527 678.72C685.999 679.504 685.199 680.128 684.127 680.592C683.055 681.056 681.751 681.288 680.215 681.288ZM698.04 681.288C696.328 681.288 694.776 680.92 693.384 680.184C692.008 679.432 690.92 678.4 690.12 677.088C689.336 675.76 688.944 674.264 688.944 672.6C688.944 670.936 689.336 669.448 690.12 668.136C690.92 666.808 692.008 665.776 693.384 665.04C694.776 664.288 696.336 663.912 698.064 663.912C699.52 663.912 700.832 664.168 702 664.68C703.184 665.192 704.176 665.928 704.976 666.888L702.48 669.192C701.344 667.88 699.936 667.224 698.256 667.224C697.216 667.224 696.288 667.456 695.472 667.92C694.656 668.368 694.016 669 693.552 669.816C693.104 670.632 692.88 671.56 692.88 672.6C692.88 673.64 693.104 674.568 693.552 675.384C694.016 676.2 694.656 676.84 695.472 677.304C696.288 677.752 697.216 677.976 698.256 677.976C699.936 677.976 701.344 677.312 702.48 675.984L704.976 678.288C704.176 679.264 703.184 680.008 702 680.52C700.816 681.032 699.496 681.288 698.04 681.288ZM715.386 681.288C713.642 681.288 712.066 680.912 710.658 680.16C709.266 679.408 708.17 678.376 707.37 677.064C706.586 675.736 706.194 674.248 706.194 672.6C706.194 670.952 706.586 669.472 707.37 668.16C708.17 666.832 709.266 665.792 710.658 665.04C712.066 664.288 713.642 663.912 715.386 663.912C717.13 663.912 718.698 664.288 720.09 665.04C721.482 665.792 722.578 666.832 723.378 668.16C724.178 669.472 724.578 670.952 724.578 672.6C724.578 674.248 724.178 675.736 723.378 677.064C722.578 678.376 721.482 679.408 720.09 680.16C718.698 680.912 717.13 681.288 715.386 681.288ZM715.386 677.976C716.378 677.976 717.274 677.752 718.074 677.304C718.874 676.84 719.498 676.2 719.946 675.384C720.41 674.568 720.642 673.64 720.642 672.6C720.642 671.56 720.41 670.632 719.946 669.816C719.498 669 718.874 668.368 718.074 667.92C717.274 667.456 716.378 667.224 715.386 667.224C714.394 667.224 713.498 667.456 712.698 667.92C711.898 668.368 711.266 669 710.802 669.816C710.354 670.632 710.13 671.56 710.13 672.6C710.13 673.64 710.354 674.568 710.802 675.384C711.266 676.2 711.898 676.84 712.698 677.304C713.498 677.752 714.394 677.976 715.386 677.976ZM743.089 664.2L735.817 681H731.977L724.729 664.2H728.929L734.041 676.2L739.225 664.2H743.089ZM757.5 677.88V681H744.492V664.2H757.188V667.32H748.356V670.968H756.156V673.992H748.356V677.88H757.5ZM771.298 681L768.058 676.32H767.866H764.482V681H760.594V664.2H767.866C769.354 664.2 770.642 664.448 771.73 664.944C772.834 665.44 773.682 666.144 774.274 667.056C774.866 667.968 775.162 669.048 775.162 670.296C775.162 671.544 774.858 672.624 774.25 673.536C773.658 674.432 772.81 675.12 771.706 675.6L775.474 681H771.298ZM771.226 670.296C771.226 669.352 770.922 668.632 770.314 668.136C769.706 667.624 768.818 667.368 767.65 667.368H764.482V673.224H767.65C768.818 673.224 769.706 672.968 770.314 672.456C770.922 671.944 771.226 671.224 771.226 670.296ZM786.072 675.048V681H782.184V675L775.68 664.2H779.808L784.296 671.664L788.784 664.2H792.6L786.072 675.048Z" fill="white"/>
<rect width="231" height="46" transform="translate(821 649)" fill="#284BAD"/>
<path d="M850.456 681.288C848.056 681.288 846.184 680.624 844.84 679.296C843.512 677.968 842.848 676.072 842.848 673.608V664.2H846.736V673.464C846.736 676.472 847.984 677.976 850.48 677.976C851.696 677.976 852.624 677.616 853.264 676.896C853.904 676.16 854.224 675.016 854.224 673.464V664.2H858.064V673.608C858.064 676.072 857.392 677.968 856.048 679.296C854.72 680.624 852.856 681.288 850.456 681.288ZM872.256 681L868.2 675.168L864.216 681H859.752L865.968 672.456L860.064 664.2H864.48L868.344 669.648L872.136 664.2H876.336L870.48 672.312L876.744 681H872.256ZM896.521 674.064H892.345V678.144H889.249V674.064H885.097V671.136H889.249V667.056H892.345V671.136H896.521V674.064ZM914.229 681.288C911.829 681.288 909.957 680.624 908.613 679.296C907.285 677.968 906.621 676.072 906.621 673.608V664.2H910.509V673.464C910.509 676.472 911.757 677.976 914.253 677.976C915.469 677.976 916.397 677.616 917.037 676.896C917.677 676.16 917.997 675.016 917.997 673.464V664.2H921.837V673.608C921.837 676.072 921.165 677.968 919.821 679.296C918.493 680.624 916.629 681.288 914.229 681.288ZM925.68 664.2H929.568V681H925.68V664.2ZM940.351 664.2H947.983C949.807 664.2 951.415 664.552 952.807 665.256C954.215 665.944 955.303 666.92 956.071 668.184C956.855 669.448 957.247 670.92 957.247 672.6C957.247 674.28 956.855 675.752 956.071 677.016C955.303 678.28 954.215 679.264 952.807 679.968C951.415 680.656 949.807 681 947.983 681H940.351V664.2ZM947.791 677.808C949.471 677.808 950.807 677.344 951.799 676.416C952.807 675.472 953.311 674.2 953.311 672.6C953.311 671 952.807 669.736 951.799 668.808C950.807 667.864 949.471 667.392 947.791 667.392H944.239V677.808H947.791ZM973.188 677.88V681H960.18V664.2H972.876V667.32H964.044V670.968H971.844V673.992H964.044V677.88H973.188ZM981.801 681.288C980.473 681.288 979.185 681.112 977.937 680.76C976.705 680.392 975.713 679.92 974.961 679.344L976.281 676.416C977.001 676.944 977.857 677.368 978.849 677.688C979.841 678.008 980.833 678.168 981.825 678.168C982.929 678.168 983.745 678.008 984.273 677.688C984.801 677.352 985.065 676.912 985.065 676.368C985.065 675.968 984.905 675.64 984.585 675.384C984.281 675.112 983.881 674.896 983.385 674.736C982.905 674.576 982.249 674.4 981.417 674.208C980.137 673.904 979.089 673.6 978.273 673.296C977.457 672.992 976.753 672.504 976.161 671.832C975.585 671.16 975.297 670.264 975.297 669.144C975.297 668.168 975.561 667.288 976.089 666.504C976.617 665.704 977.409 665.072 978.465 664.608C979.537 664.144 980.841 663.912 982.377 663.912C983.449 663.912 984.497 664.04 985.521 664.296C986.545 664.552 987.441 664.92 988.209 665.4L987.009 668.352C985.457 667.472 983.905 667.032 982.353 667.032C981.265 667.032 980.457 667.208 979.929 667.56C979.417 667.912 979.161 668.376 979.161 668.952C979.161 669.528 979.457 669.96 980.049 670.248C980.657 670.52 981.577 670.792 982.809 671.064C984.089 671.368 985.137 671.672 985.953 671.976C986.769 672.28 987.465 672.76 988.041 673.416C988.633 674.072 988.929 674.96 988.929 676.08C988.929 677.04 988.657 677.92 988.113 678.72C987.585 679.504 986.785 680.128 985.713 680.592C984.641 681.056 983.337 681.288 981.801 681.288ZM991.586 664.2H995.474V681H991.586V664.2ZM1010.81 672.336H1014.36V679.152C1013.45 679.84 1012.4 680.368 1011.2 680.736C1010 681.104 1008.79 681.288 1007.57 681.288C1005.83 681.288 1004.26 680.92 1002.87 680.184C1001.48 679.432 1000.38 678.4 999.581 677.088C998.797 675.76 998.405 674.264 998.405 672.6C998.405 670.936 998.797 669.448 999.581 668.136C1000.38 666.808 1001.48 665.776 1002.89 665.04C1004.3 664.288 1005.88 663.912 1007.64 663.912C1009.12 663.912 1010.45 664.16 1011.65 664.656C1012.85 665.152 1013.86 665.872 1014.68 666.816L1012.18 669.12C1010.98 667.856 1009.53 667.224 1007.84 667.224C1006.76 667.224 1005.81 667.448 1004.98 667.896C1004.15 668.344 1003.5 668.976 1003.04 669.792C1002.57 670.608 1002.34 671.544 1002.34 672.6C1002.34 673.64 1002.57 674.568 1003.04 675.384C1003.5 676.2 1004.14 676.84 1004.96 677.304C1005.79 677.752 1006.73 677.976 1007.79 677.976C1008.91 677.976 1009.92 677.736 1010.81 677.256V672.336ZM1033.38 664.2V681H1030.19L1021.82 670.8V681H1017.98V664.2H1021.19L1029.54 674.4V664.2H1033.38Z" fill="white"/>
<path d="M1064 649H1272C1284.7 649 1295 659.297 1295 672C1295 684.703 1284.7 695 1272 695H1064V649Z" fill="#F6862A"/>
<path d="M1085.99 664.2H1093.62C1095.45 664.2 1097.06 664.552 1098.45 665.256C1099.86 665.944 1100.94 666.92 1101.71 668.184C1102.5 669.448 1102.89 670.92 1102.89 672.6C1102.89 674.28 1102.5 675.752 1101.71 677.016C1100.94 678.28 1099.86 679.264 1098.45 679.968C1097.06 680.656 1095.45 681 1093.62 681H1085.99V664.2ZM1093.43 677.808C1095.11 677.808 1096.45 677.344 1097.44 676.416C1098.45 675.472 1098.95 674.2 1098.95 672.6C1098.95 671 1098.45 669.736 1097.44 668.808C1096.45 667.864 1095.11 667.392 1093.43 667.392H1089.88V677.808H1093.43ZM1118.83 677.88V681H1105.82V664.2H1118.52V667.32H1109.68V670.968H1117.48V673.992H1109.68V677.88H1118.83ZM1137.84 664.2L1130.57 681H1126.73L1119.48 664.2H1123.68L1128.79 676.2L1133.98 664.2H1137.84ZM1152.25 677.88V681H1139.24V664.2H1151.94V667.32H1143.11V670.968H1150.91V673.992H1143.11V677.88H1152.25ZM1155.34 664.2H1159.23V677.832H1167.66V681H1155.34V664.2ZM1177.68 681.288C1175.94 681.288 1174.36 680.912 1172.95 680.16C1171.56 679.408 1170.47 678.376 1169.67 677.064C1168.88 675.736 1168.49 674.248 1168.49 672.6C1168.49 670.952 1168.88 669.472 1169.67 668.16C1170.47 666.832 1171.56 665.792 1172.95 665.04C1174.36 664.288 1175.94 663.912 1177.68 663.912C1179.43 663.912 1180.99 664.288 1182.39 665.04C1183.78 665.792 1184.87 666.832 1185.67 668.16C1186.47 669.472 1186.87 670.952 1186.87 672.6C1186.87 674.248 1186.47 675.736 1185.67 677.064C1184.87 678.376 1183.78 679.408 1182.39 680.16C1180.99 680.912 1179.43 681.288 1177.68 681.288ZM1177.68 677.976C1178.67 677.976 1179.57 677.752 1180.37 677.304C1181.17 676.84 1181.79 676.2 1182.24 675.384C1182.71 674.568 1182.94 673.64 1182.94 672.6C1182.94 671.56 1182.71 670.632 1182.24 669.816C1181.79 669 1181.17 668.368 1180.37 667.92C1179.57 667.456 1178.67 667.224 1177.68 667.224C1176.69 667.224 1175.79 667.456 1174.99 667.92C1174.19 668.368 1173.56 669 1173.1 669.816C1172.65 670.632 1172.43 671.56 1172.43 672.6C1172.43 673.64 1172.65 674.568 1173.1 675.384C1173.56 676.2 1174.19 676.84 1174.99 677.304C1175.79 677.752 1176.69 677.976 1177.68 677.976ZM1197.07 664.2C1198.56 664.2 1199.84 664.448 1200.93 664.944C1202.04 665.44 1202.88 666.144 1203.48 667.056C1204.07 667.968 1204.36 669.048 1204.36 670.296C1204.36 671.528 1204.07 672.608 1203.48 673.536C1202.88 674.448 1202.04 675.152 1200.93 675.648C1199.84 676.128 1198.56 676.368 1197.07 676.368H1193.68V681H1189.8V664.2H1197.07ZM1196.85 673.2C1198.02 673.2 1198.91 672.952 1199.52 672.456C1200.12 671.944 1200.43 671.224 1200.43 670.296C1200.43 669.352 1200.12 668.632 1199.52 668.136C1198.91 667.624 1198.02 667.368 1196.85 667.368H1193.68V673.2H1196.85ZM1222.43 681L1222.4 670.92L1217.46 679.224H1215.71L1210.79 671.136V681H1207.14V664.2H1210.36L1216.64 674.64L1222.84 664.2H1226.03L1226.08 681H1222.43ZM1243.07 677.88V681H1230.06V664.2H1242.76V667.32H1233.93V670.968H1241.73V673.992H1233.93V677.88H1243.07ZM1261.57 664.2V681H1258.38L1250 670.8V681H1246.16V664.2H1249.38L1257.73 674.4V664.2H1261.57ZM1269.03 667.368H1263.65V664.2H1278.29V667.368H1272.91V681H1269.03V667.368Z" fill="white"/>
<path d="M-71.0258 -78H427.448C465.521 -78 502.034 -62.8813 528.955 -35.9698C555.876 -9.05836 571 27.4414 571 65.5C571 103.559 555.876 140.058 528.955 166.97C502.034 193.881 465.521 209 427.448 209H305.158C297.609 208.613 290.498 205.342 285.292 199.864C280.086 194.386 277.183 187.119 277.183 179.563C277.183 172.007 280.086 164.74 285.292 159.262C290.498 153.784 297.609 150.514 305.158 150.126H427.448C438.766 150.469 450.037 148.537 460.594 144.444C471.15 140.351 480.777 134.181 488.904 126.3C497.03 118.419 503.491 108.986 507.903 98.5623C512.315 88.1384 514.589 76.935 514.589 65.6164C514.589 54.2977 512.315 43.0944 507.903 32.6704C503.491 22.2465 497.03 12.8142 488.904 4.93287C480.777 -2.94848 471.15 -9.11844 460.594 -13.2112C450.037 -17.304 438.766 -19.2363 427.448 -18.8935H-71.0258C-78.5743 -19.281 -85.6858 -22.5514 -90.8916 -28.0294C-96.0974 -33.5074 -99 -40.7746 -99 -48.3304C-99 -55.8862 -96.0974 -63.1534 -90.8916 -68.6314C-85.6858 -74.1094 -78.5743 -77.3798 -71.0258 -77.7673V-78Z" fill="url(#paint6_linear_176_5679)"/>
<path d="M334.334 179.369V179.292C334.334 163.013 321.133 149.816 304.848 149.816H304.77C288.485 149.816 275.284 163.013 275.284 179.292V179.369C275.284 195.648 288.485 208.845 304.77 208.845H304.848C321.133 208.845 334.334 195.648 334.334 179.369Z" fill="url(#paint7_linear_176_5679)"/>
<path opacity="0.11" d="M1445.44 1392L1445.56 1392C1469.55 1392 1489 1372.47 1489 1348.38L1489 770.622C1489 746.53 1469.55 727 1445.56 727L1445.44 727C1421.45 727 1402 746.53 1402 770.622L1402 1348.38C1402 1372.47 1421.45 1392 1445.44 1392Z" fill="url(#paint8_linear_176_5679)"/>
<path d="M1445.56 727.115L1445.44 727.115C1421.45 727.115 1402 746.645 1402 770.737L1402 770.851C1402 794.943 1421.45 814.473 1445.44 814.473L1445.56 814.473C1469.55 814.473 1489 794.943 1489 770.851L1489 770.737C1489 746.645 1469.55 727.115 1445.56 727.115Z" fill="url(#paint9_linear_176_5679)"/>
</g>
<defs>
<linearGradient id="paint0_linear_176_5679" x1="202.029" y1="624.225" x2="362.49" y2="1028.31" gradientUnits="userSpaceOnUse">
<stop offset="0.57" stop-color="#122046"/>
<stop offset="1" stop-color="#2655A6"/>
</linearGradient>
<linearGradient id="paint1_linear_176_5679" x1="1945.23" y1="675.773" x2="1704.76" y2="70.1865" gradientUnits="userSpaceOnUse">
<stop offset="0.57" stop-color="#122046"/>
<stop offset="1" stop-color="#2655A6"/>
</linearGradient>
<linearGradient id="paint2_linear_176_5679" x1="692.905" y1="394.616" x2="731.469" y2="307.011" gradientUnits="userSpaceOnUse">
<stop stop-color="#F08119" stop-opacity="0"/>
<stop offset="0.2741" stop-color="#EE7521" stop-opacity="0.1371"/>
<stop offset="0.6432" stop-color="#ED6A26" stop-opacity="0.3216"/>
<stop offset="1" stop-color="#EC6627" stop-opacity="0.5"/>
</linearGradient>
<linearGradient id="paint3_linear_176_5679" x1="687.044" y1="322.938" x2="687.044" y2="303.247" gradientUnits="userSpaceOnUse">
<stop stop-color="#F08219"/>
<stop offset="1" stop-color="#EC6627"/>
</linearGradient>
<linearGradient id="paint4_linear_176_5679" x1="740.628" y1="263.939" x2="671.058" y2="329.805" gradientUnits="userSpaceOnUse">
<stop stop-color="#7AC9D2" stop-opacity="0"/>
<stop offset="0.1373" stop-color="#64AFCB" stop-opacity="0.1373"/>
<stop offset="0.3543" stop-color="#498BBD" stop-opacity="0.3543"/>
<stop offset="0.5566" stop-color="#396EAF" stop-opacity="0.5566"/>
<stop offset="0.738" stop-color="#315AA4" stop-opacity="0.738"/>
<stop offset="0.8919" stop-color="#2E4F9D" stop-opacity="0.8919"/>
<stop offset="1" stop-color="#2D4A9A"/>
</linearGradient>
<linearGradient id="paint5_linear_176_5679" x1="717.608" y1="340.316" x2="717.608" y2="360.007" gradientUnits="userSpaceOnUse">
<stop stop-color="#7AC9D2"/>
<stop offset="1" stop-color="#2D4A9A"/>
</linearGradient>
<linearGradient id="paint6_linear_176_5679" x1="235.166" y1="-78" x2="235.166" y2="208.767" gradientUnits="userSpaceOnUse">
<stop stop-color="#F6862A" stop-opacity="0"/>
<stop offset="0.38" stop-color="#F6862A" stop-opacity="0.01"/>
<stop offset="0.55" stop-color="#F6842B" stop-opacity="0.04"/>
<stop offset="0.67" stop-color="#F5822C" stop-opacity="0.09"/>
<stop offset="0.77" stop-color="#F57F2D" stop-opacity="0.16"/>
<stop offset="0.86" stop-color="#F47A2F" stop-opacity="0.26"/>
<stop offset="0.93" stop-color="#F47531" stop-opacity="0.37"/>
<stop offset="1" stop-color="#F36F33" stop-opacity="0.5"/>
</linearGradient>
<linearGradient id="paint7_linear_176_5679" x1="304.77" y1="149.738" x2="304.77" y2="208.767" gradientUnits="userSpaceOnUse">
<stop stop-color="#F6862A"/>
<stop offset="1" stop-color="#F36F33"/>
</linearGradient>
<linearGradient id="paint8_linear_176_5679" x1="1445.44" y1="1013.64" x2="1445.44" y2="1110.76" gradientUnits="userSpaceOnUse">
<stop stop-color="#6CCAD0"/>
<stop offset="0.7" stop-color="#2655A6" stop-opacity="0.1"/>
</linearGradient>
<linearGradient id="paint9_linear_176_5679" x1="1402" y1="770.737" x2="1489" y2="770.737" gradientUnits="userSpaceOnUse">
<stop stop-color="#6CCAD0"/>
<stop offset="1" stop-color="#2655A6"/>
</linearGradient>
<clipPath id="clip0_176_5679">
<rect width="1920" height="960" fill="white"/>
</clipPath>
</defs>
</svg>
