<svg width="393" height="80" viewBox="0 0 393 80" fill="none" xmlns="http://www.w3.org/2000/svg">
<path d="M112.718 50.8834C115.545 55.265 119.503 57.9506 124.591 57.9506C129.962 57.9506 133.778 54.9823 133.778 50.1767C133.778 45.7951 131.799 44.2403 126.428 41.6961L122.188 39.7173C120.492 38.8693 119.079 38.1626 117.948 37.4558C115.828 36.0424 113.99 33.7809 113.99 30.2474C113.99 27.4205 114.98 25.3004 116.958 23.7456C118.937 22.1908 121.481 21.3428 124.45 21.3428C129.114 21.3428 132.789 23.4629 135.192 26.9965L133.778 28.1272C131.375 24.735 128.266 23.1802 124.45 23.1802C122.188 23.1802 120.068 23.7456 118.372 24.8763C116.676 26.0071 115.828 27.7032 115.828 30.106C116.11 34.4876 118.089 35.7597 122.895 38.1626L127.135 40.1414C132.789 42.8269 135.616 45.2297 135.616 50.318C135.616 55.9717 130.81 59.9293 124.45 59.9293C118.796 59.9293 114.273 56.9611 111.305 52.0141L112.718 50.8834Z" fill="white"/>
<path d="M164.025 59.2225H162.329V54.4168C160.35 57.8091 156.534 59.7878 152.152 59.7878C149.608 59.7878 147.346 59.2225 145.65 57.9504C143.813 56.6783 142.965 54.9822 142.965 52.5794C142.965 48.3391 146.64 45.5122 152.293 45.5122H162.47V41.9787C162.47 36.325 159.219 33.2154 154.272 33.2154C150.597 33.2154 148.053 34.9115 145.792 38.0211L144.52 37.0317C147.205 33.4981 150.315 31.6606 154.414 31.6606C160.35 31.6606 164.166 35.3356 164.166 42.12V59.2225H164.025ZM162.329 47.2083H152.293C147.488 47.2083 144.802 49.1871 144.802 52.5794C144.802 56.2543 148.195 58.2331 152.293 58.2331C157.664 58.2331 162.329 54.4168 162.329 49.4698V47.2083Z" fill="white"/>
<path d="M176.605 32.0848H183.955V33.6396H176.605V59.2226H174.909V33.6396H170.951V32.0848H174.909V23.8869C174.909 18.6572 177.877 16.2544 182.541 16.2544C183.531 16.2544 184.52 16.3957 185.368 16.5371V18.0918C184.237 17.9505 183.389 17.8092 182.683 17.8092C178.584 17.8092 176.605 19.788 176.605 23.8869V32.0848Z" fill="white"/>
<path d="M189.608 45.7951C189.608 52.7209 194.979 58.092 201.622 58.092C205.58 58.092 208.972 56.3958 211.233 53.2863L212.505 54.2757C209.961 57.6679 206.004 59.6467 201.622 59.6467C193.99 59.6467 187.771 53.2863 187.771 45.5125C187.771 37.7386 193.848 31.3782 201.339 31.3782C207.841 31.3782 213.354 36.0425 213.354 43.3923C213.354 43.9577 213.354 44.8057 213.212 45.6538H189.608V45.7951ZM211.657 44.2404C212.081 37.4559 207.134 33.2156 201.339 33.2156C195.262 33.2156 190.315 38.0213 189.749 44.2404H211.657Z" fill="white"/>
<path d="M237.665 59.2227C235.828 59.6467 234.132 59.7881 232.718 59.7881C226.358 59.7881 222.542 56.6785 222.542 50.1767V36.6078H218.019V31.5195H222.542V24.1697H228.478V31.5195H236.676V36.6078H228.478V49.6114C228.478 53.1449 230.315 54.417 233.99 54.417C234.838 54.417 235.969 54.2757 237.665 54.1343V59.2227Z" fill="white"/>
<path d="M259.432 36.7492H257.594C252.93 36.7492 249.396 39.576 249.396 44.3817V59.2227H243.46V31.5195H248.972V35.1944C250.951 32.6502 253.919 31.2368 257.029 31.2368C257.877 31.2368 258.584 31.3782 259.29 31.5195V36.7492H259.432Z" fill="white"/>
<path d="M286.287 59.2226H280.775V56.1131C278.796 58.5159 275.686 59.788 271.87 59.788C266.075 59.788 262.259 56.5371 262.259 51.7315C262.259 46.9258 266.216 43.8163 272.435 43.8163H280.351V41.9788C280.351 38.1626 278.231 36.0424 274.414 36.0424C271.305 36.0424 269.043 37.4558 266.782 40.1414L263.39 36.6078C266.216 32.6502 270.315 30.6714 275.121 30.6714C281.905 30.6714 286.428 34.7703 286.428 42.2615V59.2226H286.287ZM280.351 48.1979H273.284C270.174 48.1979 268.337 49.3286 268.337 51.5901C268.337 53.8516 270.315 55.265 273.142 55.265C277.1 55.265 280.351 52.4382 280.351 48.7633V48.1979Z" fill="white"/>
<path d="M321.622 16.8198V59.2226H316.11V55.2651C314.131 58.0919 310.456 59.788 306.357 59.788C298.584 59.788 292.789 53.5689 292.789 45.3711C292.647 37.3145 298.725 30.6714 306.357 30.8128C310.174 30.8128 313.566 32.2262 315.686 34.7704V16.8198H321.622ZM307.347 36.3251C302.541 36.3251 298.866 40 298.866 45.3711C298.866 50.7421 302.541 54.417 307.347 54.417C311.728 54.417 315.686 51.4488 315.686 45.3711C315.686 39.4347 311.728 36.3251 307.347 36.3251Z" fill="white"/>
<path d="M334.484 47.3498C335.191 51.8728 338.725 54.6997 343.53 54.6997C346.357 54.6997 349.184 53.5689 351.587 51.4488L354.414 55.5477C351.304 58.5159 347.629 60.0707 343.389 60.0707C334.908 60.0707 328.407 53.8516 328.407 45.6537C328.265 37.7385 334.908 30.9541 342.823 31.0954C350.173 31.0954 355.686 36.6078 355.686 43.8163C355.686 44.947 355.544 46.2191 355.262 47.4912H334.484V47.3498ZM349.749 42.6855C349.749 38.4453 346.498 35.9011 342.682 35.9011C338.866 35.9011 335.615 38.5866 334.767 42.6855H349.749Z" fill="white"/>
<path d="M372.082 30.53V42.9682H370.103V32.9329L367.559 33.7809L367.135 32.0848L371.375 30.6714H372.082V30.53Z" fill="#F07D1A"/>
<path d="M377.171 32.0848C378.019 30.954 379.149 30.3887 380.704 30.3887C382.259 30.3887 383.39 30.954 384.238 32.0848C385.086 33.2155 385.51 34.7703 385.51 36.6078C385.51 40.2827 383.955 43.1095 380.845 43.1095C377.736 43.1095 376.181 40.2827 376.181 36.6078C376.04 34.7703 376.323 33.2155 377.171 32.0848ZM380.704 32.2261C378.867 32.2261 378.019 33.7809 378.019 36.7491C378.019 39.7173 378.867 41.4134 380.704 41.4134C382.542 41.4134 383.39 39.7173 383.39 36.7491C383.39 33.6396 382.542 32.2261 380.704 32.2261Z" fill="#F07D1A"/>
<path d="M393.001 30.53V42.9682H391.022V32.9329L388.478 33.7809L388.054 32.0848L392.294 30.6714H393.001V30.53Z" fill="#F07D1A"/>
<path d="M59.7138 80H6.28627C3.03538 80 0.491211 77.4558 0.491211 74.2049C0.491211 70.9541 3.03538 68.4099 6.28627 68.4099H59.7138C68.9011 68.4099 76.3923 60.9187 76.3923 51.7314C76.3923 42.5442 68.9011 35.053 59.7138 35.053H35.5442C32.2933 35.053 29.7492 32.5088 29.7492 29.2579C29.7492 26.0071 32.2933 23.4629 35.5442 23.4629H59.7138C75.4029 23.4629 88.1237 36.1837 88.1237 51.8728C88.1237 67.5618 75.2615 80 59.7138 80Z" fill="url(#paint0_linear_29_1843)"/>
<path d="M29.6074 28.1272V30.106C29.6074 32.7915 31.7276 34.9116 34.4131 34.9116H36.3919C39.0774 34.9116 41.1975 32.7915 41.1975 30.106V28.1272C41.1975 25.4417 39.0774 23.3215 36.3919 23.3215H34.4131C31.7276 23.3215 29.6074 25.4417 29.6074 28.1272Z" fill="url(#paint1_linear_29_1843)"/>
<path d="M53.353 56.8198H29.1833C13.4943 56.8198 0.773438 44.0989 0.773438 28.4099C0.773438 12.7208 13.4943 0 29.1833 0H82.6109C85.8618 0 88.406 2.54417 88.406 5.79505C88.406 9.04594 85.8618 11.5901 82.6109 11.5901H29.1833C19.9961 11.5901 12.5049 19.0813 12.5049 28.2686C12.5049 37.4558 19.9961 44.947 29.1833 44.947H53.353C56.6038 44.947 59.148 47.4912 59.148 50.7421C59.148 54.2756 56.6038 56.8198 53.353 56.8198Z" fill="url(#paint2_linear_29_1843)"/>
<path d="M59.2893 52.0142V50.0354C59.2893 47.3499 57.1692 45.2297 54.4837 45.2297H52.5049C49.8194 45.2297 47.6992 47.3499 47.6992 50.0354V52.0142C47.6992 54.6997 49.8194 56.8198 52.5049 56.8198H54.4837C57.1692 56.9612 59.2893 54.6997 59.2893 52.0142Z" fill="url(#paint3_linear_29_1843)"/>
<defs>
<linearGradient id="paint0_linear_29_1843" x1="38.8584" y1="77.4018" x2="61.7493" y2="25.5299" gradientUnits="userSpaceOnUse">
<stop stop-color="#F08119" stop-opacity="0"/>
<stop offset="0.2741" stop-color="#EE7521" stop-opacity="0.1371"/>
<stop offset="0.6432" stop-color="#ED6A26" stop-opacity="0.3216"/>
<stop offset="1" stop-color="#EC6627" stop-opacity="0.5"/>
</linearGradient>
<linearGradient id="paint1_linear_29_1843" x1="35.3934" y1="34.9259" x2="35.3934" y2="23.2572" gradientUnits="userSpaceOnUse">
<stop stop-color="#F08219"/>
<stop offset="1" stop-color="#EC6627"/>
</linearGradient>
<linearGradient id="paint2_linear_29_1843" x1="67.0681" y1="-0.0359017" x2="25.8476" y2="38.8934" gradientUnits="userSpaceOnUse">
<stop stop-color="#7AC9D2" stop-opacity="0"/>
<stop offset="0.1373" stop-color="#64AFCB" stop-opacity="0.1373"/>
<stop offset="0.3543" stop-color="#498BBD" stop-opacity="0.3543"/>
<stop offset="0.5566" stop-color="#396EAF" stop-opacity="0.5566"/>
<stop offset="0.738" stop-color="#315AA4" stop-opacity="0.738"/>
<stop offset="0.8919" stop-color="#2E4F9D" stop-opacity="0.8919"/>
<stop offset="1" stop-color="#2D4A9A"/>
</linearGradient>
<linearGradient id="paint3_linear_29_1843" x1="53.4603" y1="45.2245" x2="53.4603" y2="56.8933" gradientUnits="userSpaceOnUse">
<stop stop-color="#7AC9D2"/>
<stop offset="1" stop-color="#2D4A9A"/>
</linearGradient>
</defs>
</svg>
